
<svg  viewBox="0 0 317 243" version="1.1" xmlns="http://www.w3.org/2000/svg" xmlns:xlink="http://www.w3.org/1999/xlink">
    <g id="Page-1" stroke="none" stroke-width="1" fill="none" fill-rule="evenodd">
        <g id="Collabarate" transform="translate(-1.000000, -18.000000)">
            <path d="M210.904064,96.445586 C211.310787,94.0217535 211.580562,91.5953425 211.580562,89.203484 C211.581077,64.8300437 191.783978,45 167.451663,45 L133.129414,45 C108.797099,45 89,64.8300437 89,89.203484 C89,101.789363 94.3471166,113.71926 103.709462,122.118097 L103.709462,149.885419 L118.581097,141.506178 C120.223433,164.391283 139.289976,182.522065 162.548337,182.522065 L196.871101,182.522065 C196.925159,182.522065 196.981276,182.522065 197.040483,182.519486 L226.290538,199 L226.290538,171.232679 C235.653398,162.833841 241,150.903944 241,138.318065 C241.000515,118.861911 228.369458,102.337046 210.904064,96.445586 L210.904064,96.445586 L210.904064,96.445586 Z M118.546603,135.802437 C118.539395,135.836989 118.529613,135.871026 118.521891,135.905578 L108.612272,141.487613 L108.612272,119.867027 L107.747858,119.132142 C98.9513206,111.637343 93.9038403,100.72855 93.9038403,89.2039998 C93.9038403,67.5390633 111.501548,49.9121285 133.129414,49.9121285 L167.452178,49.9121285 C189.080559,49.9121285 206.677752,67.539579 206.677752,89.2039998 C206.677752,91.158537 206.5233,93.1455639 206.214397,95.1346536 C203.198985,94.4791875 200.078032,94.1156126 196.871101,94.1156126 L167.451663,94.1156126 L162.548337,94.1156126 L111.06445,94.1156126 L111.06445,99.0272254 L142.425345,99.0272254 C128.900013,106.006316 119.456323,119.765948 118.546603,135.802437 L118.546603,135.802437 L118.546603,135.802437 Z M222.252657,168.247239 L221.387213,168.981609 L221.387213,190.602194 L198.241602,177.559913 L197.574885,177.57229 C197.415285,177.577447 197.2562,177.587245 196.871101,177.611484 L162.548337,177.611484 C140.919956,177.611484 123.322763,159.984033 123.322763,138.319612 C123.322763,116.655192 140.920471,99.0277411 162.548337,99.0277411 L167.451663,99.0277411 L196.871101,99.0277411 C218.499482,99.0277411 236.096675,116.655192 236.096675,138.319612 C236.097189,149.843646 231.049194,160.751924 222.252657,168.247239 L222.252657,168.247239 Z M188.530711,143.087858 C194.956415,139.529466 199.322763,132.675693 199.322763,124.812161 C199.322763,113.302051 189.974834,103.938323 178.484145,103.938323 C166.993456,103.938323 157.645527,113.302051 157.645527,124.812161 C157.645527,132.675693 162.011875,139.529466 168.437579,143.087858 C160.619236,146.855113 155.193864,154.846024 155.193864,164.104033 L155.193864,172.699355 L201.774426,172.699355 L201.774426,164.104033 C201.774426,154.846024 196.349054,146.855113 188.530711,143.087858 L188.530711,143.087858 Z M162.548852,124.812161 C162.548852,116.010555 169.697905,108.849935 178.484145,108.849935 C187.270385,108.849935 194.419438,116.011071 194.419438,124.812161 C194.419438,133.613252 187.270385,140.774387 178.484145,140.774387 C169.697905,140.774387 162.548852,133.613767 162.548852,124.812161 L162.548852,124.812161 Z M196.870586,167.787742 L160.096675,167.787742 L160.096675,164.104033 C160.096675,153.947143 168.343878,145.686 178.48363,145.686 C188.623382,145.686 196.870586,153.947143 196.870586,164.104033 L196.870586,167.787742 L196.870586,167.787742 Z M172.354988,121.128452 C173.709004,121.128452 174.806651,120.02895 174.806651,118.672645 C174.806651,117.316341 173.709004,116.216839 172.354988,116.216839 C171.000972,116.216839 169.903325,117.316341 169.903325,118.672645 C169.903325,120.02895 171.000972,121.128452 172.354988,121.128452 L172.354988,121.128452 Z M184.613302,121.128452 C185.967318,121.128452 187.064965,120.02895 187.064965,118.672645 C187.064965,117.316341 185.967318,116.216839 184.613302,116.216839 C183.259286,116.216839 182.161639,117.316341 182.161639,118.672645 C182.161639,120.02895 183.259286,121.128452 184.613302,121.128452 L184.613302,121.128452 Z M190.190551,129.976472 L186.28035,127.014755 C184.390377,129.516975 181.548981,130.951162 178.484145,130.951162 C175.419309,130.951162 172.578428,129.516975 170.68794,127.014755 L166.775164,129.976472 C169.60163,133.716394 173.867585,135.862775 178.484145,135.862775 C183.100705,135.862775 187.366145,133.716394 190.190551,129.976472 L190.190551,129.976472 Z M111.064965,64.6459356 L189.516627,64.6459356 L189.516627,69.5575484 L111.064965,69.5575484 L111.064965,64.6459356 L111.064965,64.6459356 Z M111.064965,79.3807741 L189.516627,79.3807741 L189.516627,84.2923869 L111.064965,84.2923869 L111.064965,79.3807741 L111.064965,79.3807741 Z" id="chat" fill="#375A7F"></path>
            <text font-family="Helvetica-Bold, Helvetica" font-size="40" font-weight="bold" letter-spacing="10" fill="#375A7F">
                <tspan x="0.57421875" y="260">Collabarate</tspan>
            </text>
            <ellipse id="Oval" stroke="#FAC000" cx="167" cy="121.5" rx="101" ry="102.5"></ellipse>
        </g>
    </g>
</svg>