
<svg  viewBox="0 0 210 248" version="1.1" xmlns="http://www.w3.org/2000/svg" xmlns:xlink="http://www.w3.org/1999/xlink">
    <g id="Page-1" stroke="none" stroke-width="1" fill="none" fill-rule="evenodd">
        <g id="Develop" transform="translate(-5.000000, -10.000000)">
            <path d="M49.6078059,129.256559 L60.77757,129.256559 L62.5075244,137.232543 L67.2325099,136.15634 L63.4438844,118.684567 C62.5796694,114.690067 59.1853007,111.900894 55.1934501,111.900894 C51.2015994,111.900894 47.8072308,114.690067 46.9435237,118.681964 L43.1548982,136.15634 L47.8798838,137.232543 L49.6078059,129.256559 L49.6078059,129.256559 L49.6078059,129.256559 Z M181,101.98337 C181,88.3124122 170.146759,77.1900826 156.80655,77.1900826 C143.466341,77.1900826 132.6131,88.3124122 132.6131,101.98337 C132.6131,107.430511 134.35728,112.610032 137.483391,116.859135 L132.6131,116.859135 L132.6131,124.297277 C132.6131,128.397992 135.869783,131.73542 139.871287,131.73542 L154.387154,131.73542 L154.387154,135.25612 C154.387154,136.40886 153.622519,137.400716 152.526628,137.668335 L60.5911109,160.101473 C59.8554358,160.277456 59.115188,160.10668 58.5298995,159.635483 C57.9491835,159.161683 57.6128459,158.453065 57.6128459,157.689257 L57.6128459,156.528707 L72.1287127,156.528707 C76.1302165,156.528707 79.3869001,153.191279 79.3869001,149.090565 L79.3869001,141.652943 L74.5166086,141.652943 C77.6422119,137.40332 79.3869001,132.223798 79.3869001,126.777179 C79.3869001,113.106221 68.5336592,101.983891 55.1934501,101.983891 C41.8532409,101.983891 31,113.1057 31,126.776658 C31,132.223798 32.7441801,137.40332 35.8702915,141.652422 L31.0005081,141.652422 L31.0005081,149.090565 C31.0005081,153.191279 34.2571916,156.528707 38.2586955,156.528707 L52.7745623,156.528707 L52.7745623,157.689257 C52.7745623,159.98016 53.781035,162.107574 55.5348684,163.525851 C56.8339853,164.577063 58.4064402,165.130003 60.0180159,165.130003 C60.5819658,165.130003 61.1525205,165.062838 61.7139301,164.924343 L100.987197,155.341603 C100.912003,155.584751 100.839859,155.829982 100.798705,156.087709 L88.6270411,230.909091 L123.371435,230.909091 L111.202311,156.087709 C111.018392,154.954753 110.491023,153.970186 109.755347,153.201693 L153.646906,142.491205 C156.93255,141.693034 159.225946,138.717464 159.225946,135.25664 L159.225946,131.73594 L173.741813,131.73594 C177.743316,131.73594 181,128.398512 181,124.297798 L181,116.859135 L176.129708,116.859135 C179.255312,112.610032 181,107.430511 181,101.98337 L181,101.98337 Z M51.6690173,119.755043 C52.0368549,118.049362 53.4883908,116.859135 55.1939581,116.859135 C56.8995255,116.859135 58.3510613,118.049362 58.7188989,119.757646 L59.7035249,124.297277 L50.6838832,124.297277 L51.6690173,119.755043 L51.6690173,119.755043 Z M35.8387916,126.776658 C35.8387916,115.840204 44.5215876,106.942132 55.1934501,106.942132 C65.8653125,106.942132 74.5481085,115.840204 74.5481085,126.776658 C74.5481085,132.503913 72.1673255,137.879202 67.9819028,141.652422 L42.4055054,141.652422 C38.2200827,137.879202 35.8387916,132.503913 35.8387916,126.776658 L35.8387916,126.776658 Z M38.2586955,151.569946 C36.922998,151.569946 35.8392997,150.456775 35.8392997,149.090565 L35.8392997,146.611184 L40.6658978,146.611184 L69.7220184,146.611184 L74.5486165,146.611184 L74.5486165,149.090565 C74.5486165,150.456775 73.4649183,151.569946 72.1292207,151.569946 L38.2586955,151.569946 L38.2586955,151.569946 Z M117.659283,225.949809 L94.339193,225.949809 L105.569925,156.900458 C105.640037,156.468831 106.358438,156.468831 106.428551,156.900458 L117.659283,225.949809 L117.659283,225.949809 Z M137.451383,101.98337 C137.451383,91.0469162 146.134179,82.1488443 156.806042,82.1488443 C167.477904,82.1488443 176.1607,91.0469162 176.1607,101.98337 C176.1607,107.710625 173.779917,113.085915 169.594495,116.859135 L144.017081,116.859135 C139.832675,113.085915 137.451383,107.710625 137.451383,101.98337 L137.451383,101.98337 Z M176.1607,121.817896 L176.1607,124.297277 L176.161208,124.297277 C176.161208,125.663488 175.07751,126.776658 173.741813,126.776658 L139.870779,126.776658 C138.535082,126.776658 137.451383,125.663488 137.451383,124.297277 L137.451383,121.817896 L142.277982,121.817896 L171.334102,121.817896 L176.1607,121.817896 L176.1607,121.817896 Z M166.483625,104.462751 C166.483625,102.558699 165.78199,100.820738 164.630211,99.5039895 C165.78199,98.1872414 166.483625,96.4492798 166.483625,94.5452278 C166.483625,90.4445131 163.226942,87.107606 159.225438,87.107606 L147.128459,87.107606 L147.128459,111.900894 L159.225438,111.900894 C163.22745,111.900894 166.483625,108.563466 166.483625,104.462751 L166.483625,104.462751 Z M151.967758,92.065847 L159.225946,92.065847 C160.561643,92.065847 161.645342,93.1790171 161.645342,94.5452278 C161.645342,95.9114385 160.561643,97.0246086 159.225946,97.0246086 L151.967758,97.0246086 L151.967758,92.065847 L151.967758,92.065847 Z M151.967758,101.98337 L159.225946,101.98337 C160.561643,101.98337 161.645342,103.09654 161.645342,104.462751 C161.645342,105.828962 160.561643,106.942132 159.225946,106.942132 L151.967758,106.942132 L151.967758,101.98337 L151.967758,101.98337 Z" id="comparison" fill="#375A7F"></path>
            <text id="Inspect" font-family="Helvetica-Bold, Helvetica" font-size="40" font-weight="bold" letter-spacing="10" fill="#375A7F">
                <tspan x="15.9804688" y="39">Inspect</tspan>
            </text>
            <ellipse id="Oval-Copy" stroke="#FAC000" cx="106" cy="154.049587" rx="100" ry="102.479339"></ellipse>
        </g>
    </g>
</svg>