<svg viewBox="0 0 263 242" version="1.1" xmlns="http://www.w3.org/2000/svg" xmlns:xlink="http://www.w3.org/1999/xlink">
  <g id="Page-1" stroke="none" stroke-width="1" fill="none" fill-rule="evenodd">
      <g id="Prototype" transform="translate(-9.000000, -10.000000)">
          <path d="M75.6078059,128.380164 L86.77757,128.380164 L88.5075244,136.131797 L93.2325099,135.085865 L89.4438844,118.105543 C88.5796694,114.223401 85.1853007,111.512682 81.1934501,111.512682 C77.2015994,111.512682 73.8072308,114.223401 72.9435237,118.103013 L69.1548982,135.085865 L73.8798838,136.131797 L75.6078059,128.380164 L75.6078059,128.380164 L75.6078059,128.380164 Z M207,101.874122 C207,88.5877037 196.146759,77.7782258 182.80655,77.7782258 C169.466341,77.7782258 158.6131,88.5877037 158.6131,101.874122 C158.6131,107.168043 160.35728,112.201874 163.483391,116.331457 L158.6131,116.331457 L158.6131,123.560377 C158.6131,127.545746 161.869783,130.789298 165.871287,130.789298 L180.387154,130.789298 L180.387154,134.210967 C180.387154,135.331282 179.622519,136.29524 178.526628,136.555331 L86.5911109,158.357464 C85.8554358,158.528497 85.115188,158.362524 84.5298995,157.904581 C83.9491835,157.444108 83.6128459,156.755423 83.6128459,156.0131 L83.6128459,154.885194 L98.1287127,154.885194 C102.130217,154.885194 105.3869,151.641642 105.3869,147.656273 L105.3869,140.427859 L100.516609,140.427859 C103.642212,136.29777 105.3869,131.263939 105.3869,125.970523 C105.3869,112.684106 94.5336592,101.874628 81.1934501,101.874628 C67.8532409,101.874628 57,112.683599 57,125.970017 C57,131.263939 58.7441801,136.29777 61.8702915,140.427353 L57.0005081,140.427353 L57.0005081,147.656273 C57.0005081,151.641642 60.2571916,154.885194 64.2586955,154.885194 L78.7745623,154.885194 L78.7745623,156.0131 C78.7745623,158.239563 79.781035,160.307137 81.5348684,161.68552 C82.8339853,162.707163 84.4064402,163.24455 86.0180159,163.24455 C86.5819658,163.24455 87.1525205,163.179274 87.7139301,163.044675 L126.987197,153.731481 C126.912003,153.96779 126.839859,154.206122 126.798705,154.4566 L114.627041,227.173387 L149.371435,227.173387 L137.202311,154.4566 C137.018392,153.355512 136.491023,152.398639 135.755347,151.651762 L179.646906,141.242542 C182.93255,140.466822 185.225946,137.57495 185.225946,134.211473 L185.225946,130.789804 L199.741813,130.789804 C203.743316,130.789804 207,127.546252 207,123.560883 L207,116.331457 L202.129708,116.331457 C205.255312,112.201874 207,107.168043 207,101.874122 L207,101.874122 Z M77.6690173,119.145908 C78.0368549,117.488205 79.4883908,116.331457 81.1939581,116.331457 C82.8995255,116.331457 84.3510613,117.488205 84.7188989,119.148438 L85.7035249,123.560377 L76.6838832,123.560377 L77.6690173,119.145908 L77.6690173,119.145908 Z M61.8387916,125.970017 C61.8387916,115.341187 70.5215876,106.693402 81.1934501,106.693402 C91.8653125,106.693402 100.548108,115.341187 100.548108,125.970017 C100.548108,131.536175 98.1673255,136.760267 93.9819028,140.427353 L68.4055054,140.427353 C64.2200827,136.760267 61.8387916,131.536175 61.8387916,125.970017 L61.8387916,125.970017 Z M64.2586955,150.065913 C62.922998,150.065913 61.8392997,148.984055 61.8392997,147.656273 L61.8392997,145.246633 L66.6658978,145.246633 L95.7220184,145.246633 L100.548617,145.246633 L100.548617,147.656273 C100.548617,148.984055 99.4649183,150.065913 98.1292207,150.065913 L64.2586955,150.065913 L64.2586955,150.065913 Z M143.659283,222.353601 L120.339193,222.353601 L131.569925,155.246488 C131.640037,154.827002 132.358438,154.827002 132.428551,155.246488 L143.659283,222.353601 L143.659283,222.353601 Z M163.451383,101.874122 C163.451383,91.2452909 172.134179,82.5975062 182.806042,82.5975062 C193.477904,82.5975062 202.1607,91.2452909 202.1607,101.874122 C202.1607,107.440279 199.779917,112.664371 195.594495,116.331457 L170.017081,116.331457 C165.832675,112.664371 163.451383,107.440279 163.451383,101.874122 L163.451383,101.874122 Z M202.1607,121.150737 L202.1607,123.560377 L202.161208,123.560377 C202.161208,124.888159 201.07751,125.970017 199.741813,125.970017 L165.870779,125.970017 C164.535082,125.970017 163.451383,124.888159 163.451383,123.560377 L163.451383,121.150737 L168.277982,121.150737 L197.334102,121.150737 L202.1607,121.150737 L202.1607,121.150737 Z M192.483625,104.283762 C192.483625,102.433267 191.78199,100.744192 190.630211,99.4644814 C191.78199,98.1847712 192.483625,96.4956954 192.483625,94.6452011 C192.483625,90.6598323 189.226942,87.4167865 185.225438,87.4167865 L173.128459,87.4167865 L173.128459,111.512682 L185.225438,111.512682 C189.22745,111.512682 192.483625,108.269131 192.483625,104.283762 L192.483625,104.283762 Z M177.967758,92.2355609 L185.225946,92.2355609 C186.561643,92.2355609 187.645342,93.3174195 187.645342,94.6452011 C187.645342,95.9729826 186.561643,97.0548413 185.225946,97.0548413 L177.967758,97.0548413 L177.967758,92.2355609 L177.967758,92.2355609 Z M177.967758,101.874122 L185.225946,101.874122 C186.561643,101.874122 187.645342,102.95598 187.645342,104.283762 C187.645342,105.611543 186.561643,106.693402 185.225946,106.693402 L177.967758,106.693402 L177.967758,101.874122 L177.967758,101.874122 Z" id="comparison" fill="#375A7F"></path>
          <text font-family="Helvetica-Bold, Helvetica" font-size="40" font-weight="bold" letter-spacing="10" fill="#375A7F">
              <tspan x="6.16015625" y="39">Prototype</tspan>
          </text>
          <ellipse id="Oval-Copy" stroke="#FAC000" cx="132" cy="151.479839" rx="100" ry="99.5967742"></ellipse>
      </g>
  </g>
</svg>