<?xml version="1.0" encoding="UTF-8"?>
<svg  viewBox="0 0 359 357" version="1.1" xmlns="http://www.w3.org/2000/svg" xmlns:xlink="http://www.w3.org/1999/xlink">
    <!-- Generator: Sketch 48.2 (47327) - http://www.bohemiancoding.com/sketch -->
    <title>Untitled</title>
    <desc>Created with Sketch.</desc>
    <defs></defs>
    <g id="Page-1" stroke="none" stroke-width="1" fill="none" fill-rule="evenodd">
        <path d="M38,0 L321,0 C341.434536,-3.75376332e-15 358,16.5654643 358,37 L358,320 C358,340.434536 341.434536,357 321,357 L38,357 C17.5654643,357 1,340.434536 1,320 L1,37 C1,16.5654643 17.5654643,3.75376332e-15 38,0 Z M20.7753906,198.025391 L20.7753906,111.96582 C20.7753906,104.641565 22.4233234,99.1484558 25.7192383,95.4863281 C29.0151532,91.8242004 33.348606,89.9931641 38.7197266,89.9931641 C44.334989,89.9931641 48.7905109,91.8242004 52.0864258,95.4863281 C55.3823407,99.1484558 57.0302734,104.641565 57.0302734,111.96582 L57.0302734,199.978516 C57.0302734,209.988331 58.1492401,218.350064 60.387207,225.063965 C62.625174,231.777866 66.5924194,236.986147 72.2890625,240.688965 C77.9857056,244.391783 85.9608862,246.243164 96.2148438,246.243164 C110.375071,246.243164 120.384736,242.479367 126.244141,234.95166 C132.103545,227.423953 135.033203,216.010493 135.033203,200.710938 L135.033203,111.96582 C135.033203,104.560184 136.660791,99.0467303 139.916016,95.425293 C143.17124,91.8038556 147.525038,89.9931641 152.977539,89.9931641 C158.43004,89.9931641 162.844872,91.8038556 166.222168,95.425293 C169.599464,99.0467303 171.288086,104.560184 171.288086,111.96582 L171.288086,198.025391 C171.288086,212.022856 169.924981,223.7008 167.19873,233.05957 C164.47248,242.418341 159.325233,250.63766 151.756836,257.717773 C145.246387,263.739939 137.678103,268.134426 129.051758,270.901367 C120.425413,273.668308 110.334368,275.051758 98.7783203,275.051758 C85.0249963,275.051758 73.1842944,273.566584 63.2558594,270.596191 C53.3274243,267.625799 45.2301746,263.027863 38.9638672,256.802246 C32.6975598,250.576629 28.099624,242.601448 25.1699219,232.876465 C22.2402197,223.151481 20.7753906,211.534573 20.7753906,198.025391 Z M203.880859,237.209961 L243.919922,178.738281 L210.228516,126.736328 C207.054672,121.69073 204.674324,117.357277 203.087402,113.73584 C201.50048,110.114402 200.707031,106.635433 200.707031,103.298828 C200.707031,99.8808423 202.232895,96.8087701 205.284668,94.0825195 C208.336441,91.3562689 212.059548,89.9931641 216.454102,89.9931641 C221.4997,89.9931641 225.426255,91.478338 228.233887,94.4487305 C231.041518,97.4191229 234.927384,102.932577 239.891602,110.989258 L266.74707,154.446289 L295.433594,110.989258 C297.793632,107.32713 299.807772,104.194023 301.476074,101.589844 C303.144377,98.9856641 304.75162,96.8291101 306.297852,95.1201172 C307.844083,93.4111243 309.573395,92.1293988 311.48584,91.2749023 C313.398284,90.4204059 315.615873,89.9931641 318.138672,89.9931641 C322.695986,89.9931641 326.419094,91.3562689 329.308105,94.0825195 C332.197117,96.8087701 333.641602,100.043601 333.641602,103.787109 C333.641602,109.239611 330.508495,116.645135 324.242188,126.003906 L288.963867,178.738281 L326.927734,237.209961 C330.34572,242.33694 332.827792,246.589013 334.374023,249.966309 C335.920255,253.343604 336.693359,256.537745 336.693359,259.548828 C336.693359,262.39715 336.001635,265.00129 334.618164,267.361328 C333.234694,269.721366 331.281588,271.593092 328.758789,272.976562 C326.23599,274.360033 323.387711,275.051758 320.213867,275.051758 C316.795881,275.051758 313.906913,274.339688 311.546875,272.915527 C309.186837,271.491367 307.274421,269.721365 305.80957,267.605469 C304.344719,265.489573 301.61851,261.379913 297.630859,255.276367 L266.136719,205.71582 L232.689453,256.741211 C230.085273,260.810242 228.233892,263.658521 227.135254,265.286133 C226.036616,266.913745 224.7142,268.500643 223.167969,270.046875 C221.621737,271.593107 219.790701,272.813798 217.674805,273.708984 C215.558909,274.604171 213.076837,275.051758 210.228516,275.051758 C205.833962,275.051758 202.192234,273.708998 199.303223,271.023438 C196.414211,268.337877 194.969727,264.431666 194.969727,259.304688 C194.969727,253.282522 197.940074,245.917687 203.880859,237.209961 Z" id="UX" fill="#FAC000"></path>
    </g>
</svg>